<mxfile host="app.diagrams.net" modified="2023-06-15T19:36:29.933Z" agent="Mozilla/5.0 (Windows NT 10.0; Win64; x64) AppleWebKit/537.36 (KHTML, like Gecko) Chrome/114.0.0.0 Safari/537.36" version="21.3.2" etag="MrmZceVM4Rw49gr7qDRU" type="github">
  <diagram name="Страница 1" id="DggmTQYfzWurvJQ9ZBlp">
    <mxGraphModel>
      <root>
        <mxCell id="0" />
        <mxCell id="1" parent="0" />
      </root>
    </mxGraphModel>
  </diagram>
</mxfile>
